<svg xmlns="http://www.w3.org/2000/svg" viewBox="0 0 48 48" width="48" height="48">
  <!-- Stylised foot sole with reflexology zones -->
  <ellipse cx="24" cy="16" rx="11" ry="13" fill="none" stroke="#5B7B6F" stroke-width="2"/>
  <!-- Toes -->
  <circle cx="16" cy="6" r="3" fill="none" stroke="#5B7B6F" stroke-width="1.5"/>
  <circle cx="20.5" cy="4" r="3.2" fill="none" stroke="#5B7B6F" stroke-width="1.5"/>
  <circle cx="25.5" cy="4" r="3.2" fill="none" stroke="#5B7B6F" stroke-width="1.5"/>
  <circle cx="30" cy="5.5" r="2.8" fill="none" stroke="#5B7B6F" stroke-width="1.5"/>
  <circle cx="33" cy="8.5" r="2.3" fill="none" stroke="#5B7B6F" stroke-width="1.5"/>
  <!-- Arch curve -->
  <path d="M15 20 Q14 28 18 34 Q21 38 24 40 Q27 38 30 34 Q34 28 33 20" fill="none" stroke="#5B7B6F" stroke-width="2"/>
  <!-- Reflexology zone lines -->
  <path d="M18 18 Q24 17 30 18" fill="none" stroke="#C4956A" stroke-width="1" stroke-dasharray="2 2"/>
  <path d="M16 24 Q24 23 32 24" fill="none" stroke="#C4956A" stroke-width="1" stroke-dasharray="2 2"/>
  <path d="M18 30 Q24 29 30 30" fill="none" stroke="#C4956A" stroke-width="1" stroke-dasharray="2 2"/>
  <!-- Centre point -->
  <circle cx="24" cy="22" r="2" fill="#C4956A" opacity="0.6"/>
</svg>
