<svg xmlns="http://www.w3.org/2000/svg" viewBox="0 0 40 40" width="40" height="40">
  <path d="M20 4c-1.5 0-2.8 1.2-3.2 3l-1.8 9c-.3 1.5.4 3 1.8 3.8l-2.5 12.5c-.4 2 .8 3.7 2.5 4.2 1.2.3 2.4.5 3.2.5s2-.2 3.2-.5c1.7-.5 2.9-2.2 2.5-4.2L23.2 19.8c1.4-.8 2.1-2.3 1.8-3.8l-1.8-9C22.8 5.2 21.5 4 20 4z" fill="none" stroke="#B07D8E" stroke-width="1.8" stroke-linecap="round" stroke-linejoin="round"/>
  <circle cx="12" cy="11" r="2.2" fill="none" stroke="#B07D8E" stroke-width="1.5"/>
  <circle cx="14.5" cy="6.5" r="2" fill="none" stroke="#B07D8E" stroke-width="1.5"/>
  <circle cx="18" cy="4.5" r="1.8" fill="none" stroke="#B07D8E" stroke-width="1.5"/>
  <circle cx="25.5" cy="6.5" r="2" fill="none" stroke="#B07D8E" stroke-width="1.5"/>
  <circle cx="28" cy="11" r="2.2" fill="none" stroke="#B07D8E" stroke-width="1.5"/>
</svg>
