<svg xmlns="http://www.w3.org/2000/svg" viewBox="0 0 40 48" width="40" height="48">
  <!-- Simple foot silhouette with a leaf/nature accent -->
  <path d="M20 4C14 4 10 10 10 18c0 4 1 7 3 10l2 4c1 2 3 4 5 6 2-2 4-4 5-6l2-4c2-3 3-6 3-10C30 10 26 4 20 4z" fill="none" stroke="#5B7B6F" stroke-width="2" stroke-linecap="round" stroke-linejoin="round"/>
  <!-- Small leaf at top -->
  <path d="M20 8c-2 2-3 5-2 7 2 0 5-1 7-3-2-2-5-3-7-2" fill="#C4956A" opacity="0.4" stroke="#C4956A" stroke-width="0.5"/>
  <line x1="20" y1="8" x2="23" y2="11" stroke="#C4956A" stroke-width="0.8"/>
  <!-- Three horizontal zone lines -->
  <line x1="14" y1="17" x2="26" y2="17" stroke="#5B7B6F" stroke-width="0.8" opacity="0.3"/>
  <line x1="13" y1="22" x2="27" y2="22" stroke="#5B7B6F" stroke-width="0.8" opacity="0.3"/>
  <line x1="15" y1="27" x2="25" y2="27" stroke="#5B7B6F" stroke-width="0.8" opacity="0.3"/>
</svg>
